<?xml version="1.0" encoding="utf-8"?><svg xmlns="http://www.w3.org/2000/svg" xmlns:xlink="http://www.w3.org/1999/xlink" viewBox="0 0 526.14 497.81"><defs><style>.cls-1{fill:url(#linear-gradient);}.cls-2{isolation:isolate;}.cls-3{fill:url(#linear-gradient-2);}.cls-4{fill:url(#linear-gradient-3);}.cls-5{fill:url(#linear-gradient-4);}.cls-6{fill:url(#linear-gradient-5);}.cls-7{fill:url(#linear-gradient-6);}.cls-8{fill:url(#linear-gradient-7);}.cls-9{fill:url(#linear-gradient-8);}.cls-10{fill:url(#linear-gradient-9);}.cls-11{fill:url(#linear-gradient-10);}.cls-12,.cls-17{opacity:0.3;}.cls-13{fill:url(#linear-gradient-11);}.cls-14{fill:url(#linear-gradient-12);}.cls-15{mask:url(#mask);}.cls-131,.cls-16,.cls-17,.cls-18,.cls-19,.cls-23{mix-blend-mode:overlay;}.cls-16{fill:url(#linear-gradient-13);}.cls-17{fill:url(#linear-gradient-14);}.cls-18{opacity:0.6;fill:url(#linear-gradient-15);}.cls-19{opacity:0.36;fill:url(#linear-gradient-16);}.cls-20{fill:url(#linear-gradient-17);}.cls-21{fill:url(#linear-gradient-18);}.cls-22{fill:url(#linear-gradient-19);}.cls-23{fill:#161243;opacity:0.4;}.cls-24{opacity:0.7;}.cls-25{fill:url(#linear-gradient-20);}.cls-26{fill:url(#linear-gradient-21);}.cls-27{fill:url(#linear-gradient-22);}.cls-28{fill:url(#linear-gradient-23);}.cls-29,.cls-47,.cls-69{opacity:0.25;}.cls-29{fill:url(#linear-gradient-24);}.cls-30{fill:url(#linear-gradient-25);}.cls-31{fill:url(#linear-gradient-26);}.cls-32{fill:url(#linear-gradient-27);}.cls-33{fill:url(#linear-gradient-28);}.cls-34{fill:url(#linear-gradient-29);}.cls-35{fill:url(#linear-gradient-30);}.cls-36{fill:url(#linear-gradient-31);}.cls-37{fill:url(#linear-gradient-32);}.cls-38{fill:url(#linear-gradient-33);}.cls-39{fill:url(#linear-gradient-34);}.cls-40{fill:url(#linear-gradient-35);}.cls-41{fill:url(#linear-gradient-36);}.cls-42{fill:url(#linear-gradient-37);}.cls-43{fill:url(#linear-gradient-38);}.cls-44{fill:url(#linear-gradient-39);}.cls-45{fill:url(#linear-gradient-40);}.cls-46{fill:url(#linear-gradient-41);}.cls-47{fill:url(#linear-gradient-42);}.cls-48{fill:url(#linear-gradient-43);}.cls-49{fill:url(#linear-gradient-44);}.cls-50{fill:url(#linear-gradient-45);}.cls-51{fill:url(#linear-gradient-46);}.cls-52{fill:url(#linear-gradient-47);}.cls-53{fill:url(#linear-gradient-48);}.cls-54{fill:url(#linear-gradient-49);}.cls-55{fill:url(#linear-gradient-50);}.cls-56{fill:url(#linear-gradient-51);}.cls-57{fill:url(#linear-gradient-52);}.cls-58{fill:url(#linear-gradient-53);}.cls-59{fill:url(#linear-gradient-54);}.cls-60{fill:url(#linear-gradient-55);}.cls-61{fill:url(#linear-gradient-56);}.cls-62{fill:url(#linear-gradient-57);}.cls-63{fill:url(#linear-gradient-58);}.cls-64{fill:url(#linear-gradient-59);}.cls-65{fill:url(#linear-gradient-60);}.cls-66{fill:url(#linear-gradient-61);}.cls-67{fill:url(#linear-gradient-62);}.cls-68{fill:url(#linear-gradient-63);}.cls-69{fill:url(#linear-gradient-64);}.cls-70{fill:url(#linear-gradient-65);}.cls-71{fill:url(#linear-gradient-66);}.cls-72{fill:url(#linear-gradient-67);}.cls-73{fill:url(#linear-gradient-68);}.cls-74{fill:url(#linear-gradient-69);}.cls-75{fill:url(#linear-gradient-70);}.cls-76{fill:url(#linear-gradient-71);}.cls-77{fill:url(#linear-gradient-72);}.cls-78{fill:url(#linear-gradient-73);}.cls-79{fill:url(#linear-gradient-74);}.cls-80{fill:url(#linear-gradient-75);}.cls-81{fill:url(#linear-gradient-76);}.cls-82{fill:url(#linear-gradient-77);}.cls-83{fill:url(#linear-gradient-78);}.cls-84{fill:url(#linear-gradient-79);}.cls-85{fill:url(#linear-gradient-80);}.cls-86{fill:url(#linear-gradient-81);}.cls-87{fill:url(#linear-gradient-82);}.cls-88{fill:url(#linear-gradient-83);}.cls-89{fill:url(#linear-gradient-84);}.cls-90{fill:url(#linear-gradient-85);}.cls-91{fill:url(#linear-gradient-86);}.cls-92{fill:url(#linear-gradient-87);}.cls-93{fill:#28367f;}.cls-94{fill:url(#linear-gradient-88);}.cls-95{fill:url(#linear-gradient-89);}.cls-132,.cls-96{fill:#fff;}.cls-96{opacity:0.57;}.cls-97{fill:url(#linear-gradient-90);}.cls-98{fill:url(#linear-gradient-91);}.cls-99{fill:url(#linear-gradient-92);}.cls-100{fill:url(#linear-gradient-93);}.cls-101{fill:url(#linear-gradient-94);}.cls-102{fill:url(#linear-gradient-95);}.cls-103{fill:url(#linear-gradient-96);}.cls-104{fill:url(#linear-gradient-97);}.cls-105{fill:url(#linear-gradient-98);}.cls-106{fill:url(#linear-gradient-99);}.cls-107{fill:url(#linear-gradient-100);}.cls-108{fill:url(#linear-gradient-101);}.cls-109{fill:url(#linear-gradient-102);}.cls-110{fill:url(#linear-gradient-103);}.cls-111{fill:url(#linear-gradient-104);}.cls-112{fill:url(#linear-gradient-105);}.cls-113{fill:url(#linear-gradient-106);}.cls-114{fill:url(#linear-gradient-107);}.cls-115{fill:url(#linear-gradient-108);}.cls-116{fill:url(#linear-gradient-109);}.cls-117{fill:url(#linear-gradient-110);}.cls-118{fill:url(#linear-gradient-111);}.cls-119{fill:url(#linear-gradient-112);}.cls-120{fill:url(#linear-gradient-113);}.cls-121{fill:url(#linear-gradient-114);}.cls-122{fill:url(#linear-gradient-115);}.cls-123{fill:url(#linear-gradient-116);}.cls-124{fill:url(#linear-gradient-117);}.cls-125{fill:url(#linear-gradient-118);}.cls-126{fill:url(#linear-gradient-119);}.cls-127{fill:url(#linear-gradient-120);}.cls-128{fill:url(#linear-gradient-121);}.cls-129{fill:url(#linear-gradient-122);}.cls-130{fill:url(#linear-gradient-123);}</style><linearGradient id="linear-gradient" x1="157.45" y1="117.39" x2="311.14" y2="304.34" gradientUnits="userSpaceOnUse"><stop offset="0" stop-color="#fff"/><stop offset="0.01" stop-color="#fbfbfb"/><stop offset="0.3" stop-color="#a3a3a3"/><stop offset="0.55" stop-color="#5d5d5d"/><stop offset="0.76" stop-color="#2b2b2b"/><stop offset="0.91" stop-color="#0c0c0c"/><stop offset="1"/></linearGradient><linearGradient id="linear-gradient-2" x1="10.27" y1="341.75" x2="529" y2="341.75" gradientUnits="userSpaceOnUse"><stop offset="0" stop-color="#252170"/><stop offset="0.38" stop-color="#2e2388"/><stop offset="0.44" stop-color="#35249e"/><stop offset="1" stop-color="#4951e9"/></linearGradient><linearGradient id="linear-gradient-3" x1="56.69" y1="338.64" x2="425.67" y2="326.55" gradientUnits="userSpaceOnUse"><stop offset="0" stop-color="#35249e"/><stop offset="1" stop-color="#4951e9"/></linearGradient><linearGradient id="linear-gradient-4" x1="215.09" y1="28.82" x2="25.98" y2="340.21" gradientUnits="userSpaceOnUse"><stop offset="0" stop-color="#252170"/><stop offset="0.93" stop-color="#3c35bb"/></linearGradient><linearGradient id="linear-gradient-5" x1="8868.56" y1="-1638.34" x2="9123.58" y2="-1638.34" gradientTransform="matrix(-1, 0.58, 0, 1.15, 9131.2, -3125.11)" xlink:href="#linear-gradient-3"/><linearGradient id="linear-gradient-6" x1="9.2" y1="323.64" x2="330.55" y2="308" xlink:href="#linear-gradient-4"/><linearGradient id="linear-gradient-7" x1="8706.73" y1="-1638.48" x2="9204.52" y2="-1638.48" gradientTransform="matrix(-1, 0.58, 0, 1.15, 9131.2, -3125.11)" gradientUnits="userSpaceOnUse"><stop offset="0" stop-color="#3e35ba"/><stop offset="1" stop-color="#5982f6"/></linearGradient><linearGradient id="linear-gradient-8" x1="42.05" y1="349.87" x2="426.44" y2="314.32" gradientUnits="userSpaceOnUse"><stop offset="0.35" stop-color="#1f1860"/><stop offset="0.96" stop-color="#3c35bb"/></linearGradient><linearGradient id="linear-gradient-9" x1="351.37" y1="219.22" x2="-46.76" y2="141.97" gradientTransform="matrix(1, 0, 0, 1, 0, 0)" xlink:href="#linear-gradient-7"/><linearGradient id="linear-gradient-10" x1="10.05" y1="371.87" x2="331.4" y2="356.23" xlink:href="#linear-gradient-4"/><linearGradient id="linear-gradient-11" x1="140.57" y1="160.24" x2="138.15" y2="171.13" gradientUnits="userSpaceOnUse"><stop offset="0" stop-color="#3626a0"/><stop offset="1" stop-color="#171248"/></linearGradient><linearGradient id="linear-gradient-12" x1="142.33" y1="150.53" x2="145.96" y2="190.49" gradientUnits="userSpaceOnUse"><stop offset="0" stop-color="#183fa8"/><stop offset="1" stop-color="#1c3169"/></linearGradient><mask id="mask" x="15.06" y="17.27" width="511.08" height="475.51" maskUnits="userSpaceOnUse"><path class="cls-1" d="M526.13,177.65a4.4,4.4,0,0,0-2.19-3.81l-270.17-156a4.41,4.41,0,0,0-4.39,0L20.06,150.27a10,10,0,0,0-5,8.66V332.42a4.4,4.4,0,0,0,2,3.69h0l.14.08,0,0h0L287.11,492l0,0c.1.07.19.16.29.22a4.43,4.43,0,0,0,4.4,0L521.14,359.8a10,10,0,0,0,5-8.66Z"/></mask><linearGradient id="linear-gradient-13" x1="-342.39" y1="255.03" x2="713.62" y2="255.03" gradientUnits="userSpaceOnUse"><stop offset="0" stop-color="#6ec7f9"/><stop offset="1" stop-color="#89fafc"/></linearGradient><linearGradient id="linear-gradient-14" x1="50.98" y1="95.56" x2="628.71" y2="95.56" xlink:href="#linear-gradient-13"/><linearGradient id="linear-gradient-15" x1="-243.06" y1="254.02" x2="505.28" y2="254.02" xlink:href="#linear-gradient-13"/><linearGradient id="linear-gradient-16" x1="-286.27" y1="324.05" x2="603.94" y2="324.05" xlink:href="#linear-gradient-13"/><linearGradient id="linear-gradient-17" x1="18966.13" y1="353.52" x2="18965.96" y2="367" gradientTransform="matrix(-1, 0, 0, 1, 19396.4, 0)" gradientUnits="userSpaceOnUse"><stop offset="0" stop-color="#76d7cb"/><stop offset="1" stop-color="#59a0b6"/></linearGradient><linearGradient id="linear-gradient-18" x1="432.78" y1="391.23" x2="435.04" y2="352.17" gradientUnits="userSpaceOnUse"><stop offset="0.31" stop-color="#da8b59"/><stop offset="1" stop-color="#a12344"/></linearGradient><linearGradient id="linear-gradient-19" x1="412" y1="356.73" x2="445.3" y2="333.71" gradientUnits="userSpaceOnUse"><stop offset="0" stop-color="#faed7c"/><stop offset="0.54" stop-color="#ecaf62"/><stop offset="1" stop-color="#e57d5c"/></linearGradient><linearGradient id="linear-gradient-20" x1="437.69" y1="358.98" x2="466.83" y2="375.41" gradientUnits="userSpaceOnUse"><stop offset="0" stop-color="#484fe6"/><stop offset="1" stop-color="#171248"/></linearGradient><linearGradient id="linear-gradient-21" x1="474.05" y1="357.77" x2="441.7" y2="336.91" xlink:href="#linear-gradient-20"/><linearGradient id="linear-gradient-22" x1="517.76" y1="348.13" x2="448.48" y2="370.05" xlink:href="#linear-gradient-20"/><linearGradient id="linear-gradient-23" x1="474.65" y1="356.95" x2="447.45" y2="341.25" gradientUnits="userSpaceOnUse"><stop offset="0" stop-color="#1f1c86"/><stop offset="1" stop-color="#1a114d"/></linearGradient><linearGradient id="linear-gradient-24" x1="4986.25" y1="-944.11" x2="5003.26" y2="-912.44" gradientTransform="matrix(1, -0.09, 0.67, 0.94, -3921.91, 1715.14)" gradientUnits="userSpaceOnUse"><stop offset="0" stop-color="#2a217f"/><stop offset="1" stop-color="#171247"/></linearGradient><linearGradient id="linear-gradient-25" x1="18385.78" y1="-1316.08" x2="18385.61" y2="-1302.6" gradientTransform="matrix(-0.99, 0.12, 0.12, 0.99, 18831.4, -453.3)" xlink:href="#linear-gradient-17"/><linearGradient id="linear-gradient-26" x1="421.25" y1="390.56" x2="423.51" y2="351.5" xlink:href="#linear-gradient-18"/><linearGradient id="linear-gradient-27" x1="414.11" y1="344.92" x2="477.54" y2="344.92" xlink:href="#linear-gradient-19"/><linearGradient id="linear-gradient-28" x1="497.51" y1="329.23" x2="442.02" y2="308.27" gradientUnits="userSpaceOnUse"><stop offset="0" stop-color="#a532b7"/><stop offset="1" stop-color="#5d2375"/></linearGradient><linearGradient id="linear-gradient-29" x1="451.79" y1="283.58" x2="473.37" y2="294.27" gradientTransform="matrix(1, 0, 0, 1, 0, 0)" xlink:href="#linear-gradient-17"/><linearGradient id="linear-gradient-30" x1="457.8" y1="279.54" x2="467.8" y2="279.54" xlink:href="#linear-gradient-18"/><linearGradient id="linear-gradient-31" x1="415.08" y1="294.94" x2="456.91" y2="294.94" gradientTransform="matrix(1, 0, 0, 1, 0, 0)" xlink:href="#linear-gradient-24"/><linearGradient id="linear-gradient-32" x1="418.88" y1="294.65" x2="455.39" y2="294.65" gradientTransform="matrix(1, 0, 0, 1, 0, 0)" xlink:href="#linear-gradient-17"/><linearGradient id="linear-gradient-33" x1="422.39" y1="278.14" x2="428.25" y2="287.39" xlink:href="#linear-gradient-28"/><linearGradient id="linear-gradient-34" x1="500.18" y1="322.18" x2="444.68" y2="301.22" xlink:href="#linear-gradient-28"/><linearGradient id="linear-gradient-35" x1="452.68" y1="292.42" x2="465.43" y2="332.5" xlink:href="#linear-gradient-28"/><linearGradient id="linear-gradient-36" x1="446.9" y1="281.51" x2="465.55" y2="259.77" xlink:href="#linear-gradient-18"/><linearGradient id="linear-gradient-37" x1="444.08" y1="281.11" x2="485.19" y2="237.12" gradientUnits="userSpaceOnUse"><stop offset="0.01" stop-color="#7b1947"/><stop offset="1" stop-color="#32073e"/></linearGradient><linearGradient id="linear-gradient-38" x1="448.97" y1="285.68" x2="490.08" y2="241.7" xlink:href="#linear-gradient-37"/><linearGradient id="linear-gradient-39" x1="448.82" y1="282.88" x2="467.24" y2="261.41" xlink:href="#linear-gradient-18"/><linearGradient id="linear-gradient-40" x1="418.53" y1="311.53" x2="452.45" y2="292.87" xlink:href="#linear-gradient-18"/><linearGradient id="linear-gradient-41" x1="424.44" y1="322.26" x2="458.36" y2="303.61" xlink:href="#linear-gradient-18"/><linearGradient id="linear-gradient-42" x1="6214.06" y1="254.68" x2="6231.07" y2="286.35" gradientTransform="matrix(0.87, -0.5, 1, 0.58, -5362.17, 3405.2)" xlink:href="#linear-gradient-24"/><linearGradient id="linear-gradient-43" x1="16704.06" y1="431.79" x2="16703.89" y2="445.27" gradientTransform="matrix(-1, 0, 0, 1, 16998.48, 0)" xlink:href="#linear-gradient-24"/><linearGradient id="linear-gradient-44" x1="2694.86" y1="469.5" x2="2697.12" y2="430.45" gradientTransform="translate(-2397.92)" gradientUnits="userSpaceOnUse"><stop offset="0" stop-color="#f5d773"/><stop offset="1" stop-color="#eaa060"/></linearGradient><linearGradient id="linear-gradient-45" x1="2674.07" y1="435" x2="2707.37" y2="411.98" gradientTransform="translate(-2397.92)" xlink:href="#linear-gradient-17"/><linearGradient id="linear-gradient-46" x1="302.38" y1="437.07" x2="331.52" y2="453.5" xlink:href="#linear-gradient-20"/><linearGradient id="linear-gradient-47" x1="338.74" y1="435.86" x2="306.38" y2="415" xlink:href="#linear-gradient-20"/><linearGradient id="linear-gradient-48" x1="382.45" y1="426.23" x2="313.17" y2="448.15" xlink:href="#linear-gradient-20"/><linearGradient id="linear-gradient-49" x1="339.34" y1="435.05" x2="312.14" y2="419.34" xlink:href="#linear-gradient-23"/><linearGradient id="linear-gradient-50" x1="16147.75" y1="-977.49" x2="16147.59" y2="-964.01" gradientTransform="matrix(-0.99, 0.12, 0.12, 0.99, 16433.49, -453.3)" xlink:href="#linear-gradient-24"/><linearGradient id="linear-gradient-51" x1="2683.32" y1="468.83" x2="2685.59" y2="429.78" xlink:href="#linear-gradient-44"/><linearGradient id="linear-gradient-52" x1="2676.18" y1="423.2" x2="2739.61" y2="423.2" gradientTransform="translate(-2397.92)" xlink:href="#linear-gradient-17"/><linearGradient id="linear-gradient-53" x1="2719.88" y1="357.97" x2="2729.87" y2="357.97" xlink:href="#linear-gradient-44"/><linearGradient id="linear-gradient-54" x1="17802.55" y1="2871.94" x2="17833.13" y2="2828.87" gradientTransform="matrix(-0.95, -0.33, -0.33, 0.95, 18096.54, 3460.79)" xlink:href="#linear-gradient-44"/><linearGradient id="linear-gradient-55" x1="17807.16" y1="2845.63" x2="17830.82" y2="2845.63" gradientTransform="matrix(-0.95, -0.33, -0.33, 0.95, 18096.54, 3460.79)" xlink:href="#linear-gradient-37"/><linearGradient id="linear-gradient-56" x1="2758.25" y1="403.01" x2="2705.52" y2="383.09" gradientTransform="translate(-2397.92)" gradientUnits="userSpaceOnUse"><stop offset="0.01" stop-color="#4b80ef"/><stop offset="1" stop-color="#102170"/></linearGradient><linearGradient id="linear-gradient-57" x1="2762.15" y1="400.71" x2="2706.65" y2="379.74" xlink:href="#linear-gradient-56"/><linearGradient id="linear-gradient-58" x1="9090.1" y1="368.84" x2="9044.46" y2="409.95" gradientTransform="matrix(-1, 0, 0, 1, 9372.97, 0)" xlink:href="#linear-gradient-44"/><linearGradient id="linear-gradient-59" x1="11613.97" y1="4258.6" x2="11568.4" y2="4299.66" gradientTransform="matrix(-0.76, -0.65, -0.65, 0.76, 11871.81, 4712.02)" xlink:href="#linear-gradient-44"/><linearGradient id="linear-gradient-60" x1="9213.3" y1="430.9" x2="9022.14" y2="358.68" gradientTransform="matrix(-1, 0, 0, 1, 9372.97, 0)" xlink:href="#linear-gradient-17"/><linearGradient id="linear-gradient-61" x1="9209.45" y1="441.1" x2="9018.29" y2="368.88" gradientTransform="matrix(-1, 0, 0, 1, 9372.97, 0)" xlink:href="#linear-gradient-17"/><linearGradient id="linear-gradient-62" x1="2316.22" y1="491.44" x2="2325.83" y2="521.69" gradientTransform="translate(-1931.21 -361.3) rotate(6.18)" xlink:href="#linear-gradient-56"/><linearGradient id="linear-gradient-63" x1="8218.37" y1="149.72" x2="8148.63" y2="210.97" gradientTransform="matrix(-1, 0, 0, 1, 8397.84, 0)" gradientUnits="userSpaceOnUse"><stop offset="0" stop-color="#6ec7f9"/><stop offset="1" stop-color="#cbf1fc"/></linearGradient><linearGradient id="linear-gradient-64" x1="10303.44" y1="3561.05" x2="10323.23" y2="3597.9" gradientTransform="matrix(1, -0.09, 0.67, 0.94, -12449.04, -2092)" xlink:href="#linear-gradient-24"/><linearGradient id="linear-gradient-65" x1="8181.08" y1="314.91" x2="8204.25" y2="282.69" gradientTransform="matrix(-1, 0, 0, 1, 8397.84, 0)" xlink:href="#linear-gradient-28"/><linearGradient id="linear-gradient-66" x1="8202.77" y1="328.96" x2="8207.61" y2="304.74" gradientTransform="matrix(-1, 0, 0, 1, 8397.84, 0)" xlink:href="#linear-gradient-28"/><linearGradient id="linear-gradient-67" x1="9527.48" y1="325.45" x2="9526.21" y2="286.59" gradientTransform="translate(-9334.48)" xlink:href="#linear-gradient-19"/><linearGradient id="linear-gradient-68" x1="9543.21" y1="324.94" x2="9541.94" y2="286.08" gradientTransform="translate(-9334.48)" xlink:href="#linear-gradient-19"/><linearGradient id="linear-gradient-69" x1="9559.71" y1="254.06" x2="9526.56" y2="266.76" gradientTransform="translate(-9334.48)" xlink:href="#linear-gradient-24"/><linearGradient id="linear-gradient-70" x1="9541.96" y1="267.97" x2="9507.49" y2="266.16" gradientTransform="translate(-9334.48)" xlink:href="#linear-gradient-24"/><linearGradient id="linear-gradient-71" x1="8207.58" y1="172.34" x2="8176.15" y2="228.58" gradientTransform="matrix(-1, 0, 0, 1, 8397.84, 0)" xlink:href="#linear-gradient-19"/><linearGradient id="linear-gradient-72" x1="9272.97" y1="100.82" x2="9082.3" y2="353.18" gradientTransform="matrix(-1, 0, 0, 1, 9408.33, 0)" xlink:href="#linear-gradient-63"/><linearGradient id="linear-gradient-73" x1="9203.49" y1="132.82" x2="9205.18" y2="165.4" gradientTransform="matrix(-1, 0, 0, 1, 9408.33, 0)" xlink:href="#linear-gradient-18"/><linearGradient id="linear-gradient-74" x1="9598.14" y1="150.26" x2="9482.84" y2="251.53" gradientTransform="translate(-9334.48)" xlink:href="#linear-gradient-63"/><linearGradient id="linear-gradient-75" x1="9771.06" y1="233.46" x2="9736.35" y2="263.95" gradientTransform="matrix(1, -0.05, 0.05, 1, -9546.11, 489.8)" xlink:href="#linear-gradient-18"/><linearGradient id="linear-gradient-76" x1="8202.6" y1="198.27" x2="8210.98" y2="181.84" xlink:href="#linear-gradient-63"/><linearGradient id="linear-gradient-77" x1="5818.23" y1="318.28" x2="5782.02" y2="350.08" gradientTransform="matrix(-0.83, 0.56, 0.56, 0.83, 4865.36, -3331.83)" xlink:href="#linear-gradient-18"/><linearGradient id="linear-gradient-78" x1="4390.57" y1="1259.99" x2="4379.51" y2="1268.69" gradientTransform="translate(-2827.21 -3251.08) rotate(32.3)" xlink:href="#linear-gradient-18"/><linearGradient id="linear-gradient-79" x1="6420.09" y1="455.32" x2="6443.01" y2="455.32" gradientTransform="matrix(1, 0.03, -0.03, 1, -6214.31, -488)" xlink:href="#linear-gradient-37"/><linearGradient id="linear-gradient-80" x1="4390.09" y1="1259.38" x2="4379.03" y2="1268.08" gradientTransform="translate(-2827.21 -3251.08) rotate(32.3)" xlink:href="#linear-gradient-18"/><linearGradient id="linear-gradient-81" x1="473.5" y1="407.4" x2="472.12" y2="419.58" gradientUnits="userSpaceOnUse"><stop offset="0" stop-color="#4b80ef"/><stop offset="1" stop-color="#102170"/></linearGradient><linearGradient id="linear-gradient-82" x1="473.54" y1="454.86" x2="475.8" y2="415.81" xlink:href="#linear-gradient-18"/><linearGradient id="linear-gradient-83" x1="452.75" y1="420.37" x2="486.05" y2="397.35" gradientTransform="matrix(1, 0, 0, 1, 0, 0)" xlink:href="#linear-gradient-17"/><linearGradient id="linear-gradient-84" x1="477.88" y1="424.56" x2="507.03" y2="440.99" xlink:href="#linear-gradient-20"/><linearGradient id="linear-gradient-85" x1="514.24" y1="423.35" x2="481.89" y2="402.49" xlink:href="#linear-gradient-20"/><linearGradient id="linear-gradient-86" x1="557.95" y1="413.72" x2="488.67" y2="435.64" xlink:href="#linear-gradient-20"/><linearGradient id="linear-gradient-87" x1="514.84" y1="422.53" x2="487.64" y2="406.83" xlink:href="#linear-gradient-23"/><linearGradient id="linear-gradient-88" x1="460.6" y1="377.84" x2="487.09" y2="341.3" xlink:href="#linear-gradient-81"/><linearGradient id="linear-gradient-89" x1="14928.5" y1="1840.14" x2="14951.66" y2="1822.08" gradientTransform="matrix(-0.49, -0.77, 1.33, -1.05, 5302.5, 13786.84)" xlink:href="#linear-gradient-17"/><linearGradient id="linear-gradient-90" x1="507.26" y1="345.43" x2="477.7" y2="356.47" xlink:href="#linear-gradient-18"/><linearGradient id="linear-gradient-91" x1="510.24" y1="353.42" x2="480.68" y2="364.45" xlink:href="#linear-gradient-18"/><linearGradient id="linear-gradient-92" x1="447.22" y1="409.13" x2="445.68" y2="418.99" xlink:href="#linear-gradient-81"/><linearGradient id="linear-gradient-93" x1="449.13" y1="446.29" x2="451.21" y2="410.27" xlink:href="#linear-gradient-18"/><linearGradient id="linear-gradient-94" x1="446.8" y1="405.73" x2="518.29" y2="405.73" gradientTransform="matrix(1, 0, 0, 1, 0, 0)" xlink:href="#linear-gradient-17"/><linearGradient id="linear-gradient-95" x1="499.26" y1="385.55" x2="533.87" y2="354.33" gradientUnits="userSpaceOnUse"><stop offset="0" stop-color="#4b80ef"/><stop offset="1" stop-color="#59a0b6"/></linearGradient><linearGradient id="linear-gradient-96" x1="499.68" y1="344.21" x2="509.67" y2="344.21" xlink:href="#linear-gradient-18"/><linearGradient id="linear-gradient-97" x1="490.47" y1="346.17" x2="507.81" y2="325.96" xlink:href="#linear-gradient-18"/><linearGradient id="linear-gradient-98" x1="486.46" y1="347.12" x2="531.27" y2="299.17" xlink:href="#linear-gradient-37"/><linearGradient id="linear-gradient-99" x1="492.26" y1="347.44" x2="509.38" y2="327.49" xlink:href="#linear-gradient-18"/><linearGradient id="linear-gradient-100" x1="1876.26" y1="-1331.26" x2="1908.87" y2="-1349.19" gradientTransform="translate(-937.01 2211.1) rotate(-17.26)" xlink:href="#linear-gradient-18"/><linearGradient id="linear-gradient-101" x1="1869.53" y1="-1313.34" x2="1941.93" y2="-1353.16" gradientTransform="translate(-937.01 2211.1) rotate(-17.26)" xlink:href="#linear-gradient-18"/><linearGradient id="linear-gradient-102" x1="487.37" y1="370.74" x2="520.43" y2="340.92" xlink:href="#linear-gradient-95"/><linearGradient id="linear-gradient-103" x1="399.01" y1="470.32" x2="428.15" y2="486.75" xlink:href="#linear-gradient-20"/><linearGradient id="linear-gradient-104" x1="435.37" y1="469.11" x2="403.01" y2="448.25" xlink:href="#linear-gradient-20"/><linearGradient id="linear-gradient-105" x1="479.08" y1="459.47" x2="409.8" y2="481.39" xlink:href="#linear-gradient-20"/><linearGradient id="linear-gradient-106" x1="435.97" y1="468.29" x2="408.77" y2="452.59" xlink:href="#linear-gradient-23"/><linearGradient id="linear-gradient-107" x1="8369.11" y1="468.94" x2="8370.14" y2="477.47" gradientTransform="matrix(-1, 0.09, 0.09, 1, 8701.81, -870.12)" xlink:href="#linear-gradient-17"/><linearGradient id="linear-gradient-108" x1="8998.89" y1="386.9" x2="8989.49" y2="395.07" gradientTransform="matrix(-1, 0, 0, 1, 9372.97, 0)" xlink:href="#linear-gradient-44"/><linearGradient id="linear-gradient-109" x1="16622.86" y1="453.21" x2="16622.7" y2="466.69" gradientTransform="matrix(-1, 0, 0, 1, 16998.48, 0)" xlink:href="#linear-gradient-24"/><linearGradient id="linear-gradient-110" x1="2776.05" y1="490.92" x2="2778.31" y2="451.86" xlink:href="#linear-gradient-44"/><linearGradient id="linear-gradient-111" x1="16055.83" y1="-933.93" x2="16055.67" y2="-920.45" gradientTransform="matrix(-0.99, 0.12, 0.12, 0.99, 16433.49, -453.3)" xlink:href="#linear-gradient-24"/><linearGradient id="linear-gradient-112" x1="2779.65" y1="501.5" x2="2781.91" y2="462.45" xlink:href="#linear-gradient-44"/><linearGradient id="linear-gradient-113" x1="2765.83" y1="470.82" x2="2801.99" y2="445.82" gradientTransform="translate(-2397.92)" xlink:href="#linear-gradient-28"/><linearGradient id="linear-gradient-114" x1="2772.51" y1="455.87" x2="2835.93" y2="455.87" gradientTransform="translate(-2397.92)" xlink:href="#linear-gradient-28"/><linearGradient id="linear-gradient-115" x1="2816.2" y1="390.64" x2="2826.19" y2="390.64" xlink:href="#linear-gradient-44"/><linearGradient id="linear-gradient-116" x1="17700.84" y1="2871.45" x2="17731.42" y2="2828.37" gradientTransform="matrix(-0.95, -0.33, -0.33, 0.95, 18096.54, 3460.79)" xlink:href="#linear-gradient-44"/><linearGradient id="linear-gradient-117" x1="17705.38" y1="2844.76" x2="17729.11" y2="2844.76" gradientTransform="matrix(-0.95, -0.33, -0.33, 0.95, 18096.54, 3460.79)" xlink:href="#linear-gradient-37"/><linearGradient id="linear-gradient-118" x1="8978.92" y1="395.21" x2="8920.64" y2="451.02" gradientTransform="matrix(-1, 0, 0, 1, 9372.97, 0)" xlink:href="#linear-gradient-17"/><linearGradient id="linear-gradient-119" x1="8980.1" y1="396.45" x2="8921.83" y2="452.26" gradientTransform="matrix(-1, 0, 0, 1, 9372.97, 0)" xlink:href="#linear-gradient-17"/><linearGradient id="linear-gradient-120" x1="378.23" y1="387.89" x2="388.74" y2="387.89" xlink:href="#linear-gradient-3"/><linearGradient id="linear-gradient-121" x1="8998.7" y1="386.68" x2="8989.3" y2="394.86" gradientTransform="matrix(-1, 0, 0, 1, 9372.97, 0)" xlink:href="#linear-gradient-44"/><linearGradient id="linear-gradient-122" x1="3825.6" y1="9935.87" x2="3824.61" y2="9936.74" gradientTransform="matrix(0.34, 0.94, 0.73, -0.26, -8169.96, -627.3)" xlink:href="#linear-gradient-44"/><linearGradient id="linear-gradient-123" x1="8383.65" y1="471.08" x2="8387.72" y2="478.65" gradientTransform="matrix(-1, 0.09, 0.09, 1, 8701.81, -870.12)" xlink:href="#linear-gradient-44"/></defs><g class="cls-2"><g id="Layer_2" data-name="Layer 2"><g id="Layer_16" data-name="Layer 16"><path class="cls-3" d="M429.52,311.08v3.19L265.85,219.78a11,11,0,0,0-11,0L20.2,355.36H10.27v8.57a4.85,4.85,0,0,0,2.42,4.16l165.65,95.63a11,11,0,0,0,11,0L431.5,323.81a4.88,4.88,0,0,0,2.43-4.2v-8.53Z"/><path class="cls-4" d="M431.51,306.88a4.85,4.85,0,0,1,0,8.4L189.37,455.19a11,11,0,0,1-11,0L12.69,359.55a4.85,4.85,0,0,1,0-8.39L254.83,211.25a11,11,0,0,1,11,0Z"/><path class="cls-5" d="M257.78,8.73,255,7.14v189a11,11,0,0,1-5.51,9.55L14.78,341.08l-5,8.6-7.43-4.29A4.86,4.86,0,0,1,0,341.22V149.94a11,11,0,0,1,5.51-9.55L247.75.65a4.81,4.81,0,0,1,4.84,0L260,4.91Z"/><path class="cls-6" d="M7.63,345.62a4.85,4.85,0,0,0,7.26,4.2L257.13,210.07a11,11,0,0,0,5.51-9.55V9.24A4.85,4.85,0,0,0,255.37,5L13.14,144.79a11,11,0,0,0-5.52,9.55Z"/><path class="cls-7" d="M347,268.09a4.46,4.46,0,0,1,0,7.73l-223,128.83a10.14,10.14,0,0,1-10.15,0L38.75,361.3a4.46,4.46,0,0,1,0-7.73l223-128.83a10.14,10.14,0,0,1,10.15,0Z"/><path class="cls-8" d="M15.06,332.42a4.4,4.4,0,0,0,6.6,3.8L251,203.82a10,10,0,0,0,5-8.66V21.67a4.4,4.4,0,0,0-6.59-3.81L20.06,150.27a10,10,0,0,0-5,8.66Z"/><path class="cls-9" d="M260.87,210.21a12,12,0,0,1,5.31,1.63l165.65,95.64a3.45,3.45,0,0,1,1.71,3c0,1.21-1.69,3-2.74,3.59L188.66,454a9.59,9.59,0,0,1-9.61,0L13.4,358.32a5,5,0,0,1-2.51-3.81,3.41,3.41,0,0,1,1.71-3L254.74,211.63A12.09,12.09,0,0,1,260.87,210.21Zm-.53-.44a11,11,0,0,0-5.51,1.48L12.69,351.16a4.85,4.85,0,0,0,0,8.39l165.65,95.64a11,11,0,0,0,5.51,1.48,11.09,11.09,0,0,0,5.52-1.48L431.51,315.28a4.85,4.85,0,0,0,0-8.4L265.86,211.25A11,11,0,0,0,260.34,209.77Z"/><path class="cls-10" d="M260.22,5.05a4.79,4.79,0,0,0-2.43-.65,4.87,4.87,0,0,0-2.42.64L13.14,144.79a11,11,0,0,0-5.52,9.55V345.62a4.84,4.84,0,0,0,2.28,4.1s-.86-.44-.86-4.1V154.34A9.61,9.61,0,0,1,13.85,146L256.08,6.28C259.21,4.71,260.69,5.32,260.22,5.05Z"/><path class="cls-11" d="M333.74,350.59a2.79,2.79,0,0,1,0,4.83l-67.23,39.19a6.34,6.34,0,0,1-6.37,0l-47-27.12a2.79,2.79,0,0,1,0-4.83l67.22-39.19a6.36,6.36,0,0,1,6.37,0Z"/><g class="cls-12"><path class="cls-13" d="M103.36,221.11V156.92c0-2.09,2.12-4.74,4-5l70.9-9.79a1.41,1.41,0,0,1,1.56.6,39,39,0,0,1,1.74,4.06L110.6,223l-4.13.38a4.29,4.29,0,0,1-2.06-.38A2,2,0,0,1,103.36,221.11Z"/><path class="cls-14" d="M109,221.36V160.17c0-2,2-4.51,3.87-4.82l67.27-9.18a1.33,1.33,0,0,1,1.48.57c.6,1,.1,3-1.48,4.6l-67.27,70.37C111,223.54,109,223.35,109,221.36Z"/></g><g class="cls-15"><path class="cls-16" d="M526.13,177.65a4.4,4.4,0,0,0-2.19-3.81l-270.17-156a4.41,4.41,0,0,0-4.39,0L20.06,150.27a10,10,0,0,0-5,8.66V332.42a4.4,4.4,0,0,0,2,3.69h0l.14.08,0,0h0L287.11,492l0,0c.1.07.19.16.29.22a4.43,4.43,0,0,0,4.4,0L521.14,359.8a10,10,0,0,0,5-8.66Z"/><path class="cls-17" d="M518.24,170.55,253.77,17.86a4.41,4.41,0,0,0-4.39,0l-2.84,1.64a4.39,4.39,0,0,1,4.39,0L518.24,173.84Z"/><path class="cls-18" d="M18.45,153.61A6,6,0,0,0,17,153a9.7,9.7,0,0,0-1.31,2.37L362.19,355.09V351.8Z"/><path class="cls-19" d="M15.75,155.3a10.09,10.09,0,0,0-.69,3.63V332.42a4.4,4.4,0,0,0,2,3.69h0l.14.08,0,0h0L287.11,492l0,0c.1.07.19.16.29.22a4.43,4.43,0,0,0,4.4,0l154.07-89Z"/></g><path class="cls-20" d="M437.18,362.79s.71,2.34.92,3.21a10.51,10.51,0,0,1-.37,3,1.85,1.85,0,0,1-1.36,1.4,4.56,4.56,0,0,1-3.59-.65l-9.58-6.48a1.19,1.19,0,0,1-.39-1.55l.26-.49a1.88,1.88,0,0,1,2.12-.94c2.17.55,6.2,1.47,7.63,1.1C434.81,360.87,437.18,362.79,437.18,362.79Z"/><path class="cls-21" d="M437.48,357s0,6.86-.29,7.82-3.38.92-4.22-1.14c-.71-1.75-1.1-7.45-1.1-7.45Z"/><path class="cls-22" d="M431.87,360.78a7.27,7.27,0,0,0,6.26.55s0-17-.65-21.66,24.64,7.71,24.64,7.71l6.48-22.05s-32.22-10.47-38.2-6.62C423.93,322.87,427.06,343.66,431.87,360.78Z"/><polygon class="cls-23" points="481.69 372.14 481.72 372.19 457.06 386.47 432.36 372.3 432.37 372.02 456.89 357.86 457.22 357.86 481.68 372.02 481.69 372.14"/><g class="cls-24"><polygon class="cls-25" points="457.02 381.52 457.02 358.42 436.99 346.86 436.82 346.8 436.82 369.79 436.95 370.02 456.88 381.52 457.02 381.52"/><polygon class="cls-26" points="477.09 346.77 477.11 346.82 457.06 358.43 436.96 346.9 436.97 346.68 456.92 335.16 457.19 335.16 477.08 346.67 477.09 346.77"/><polygon class="cls-27" points="457.02 358.42 457.02 381.52 457.17 381.52 477.1 370.02 477.23 369.79 477.23 346.76 477.16 346.76 477.12 346.82 457.02 358.42"/><path class="cls-28" d="M457.06,335.29l19.81,11.47-19.81,11.47-19.93-11.44Zm0-.21-20.23,11.68s0,0,0,0a.05.05,0,0,0,0,0l20.23,11.6,20.16-11.67Z"/></g><ellipse class="cls-29" cx="422.67" cy="369.68" rx="26.46" ry="9.6" transform="translate(-115.7 210.08) rotate(-24.66)"/><path class="cls-30" d="M425,367.73s1,2.24,1.27,3.08a10.41,10.41,0,0,1,0,3,1.84,1.84,0,0,1-1.2,1.55,4.51,4.51,0,0,1-3.63-.23l-10.27-5.33a1.2,1.2,0,0,1-.57-1.5l.2-.51a1.87,1.87,0,0,1,2-1.18c2.22.29,6.33.74,7.71.21C422.43,366.1,425,367.73,425,367.73Z"/><path class="cls-31" d="M425.64,361.55s0,6.85-.29,7.82-3.38.92-4.21-1.14c-.71-1.75-1.1-7.45-1.1-7.45Z"/><path class="cls-32" d="M419.11,364.64s3.61,2.24,7.28.74c0,0-1-24.12-.5-26.48s2.62-1.81,6,0c2.54,1.36,18.54,11.93,26.09,12.59s16.49-5.65,17.88-9.35,1.7-13.21,1.7-13.21l-27.29,2.57s-26.18-10.4-31.8-6.78C409.24,330.64,417.26,359.56,419.11,364.64Z"/><path class="cls-33" d="M445.82,329.84a6.71,6.71,0,0,1,4.74,5.51c.62,4.47.93,13.45,6.32,14.65s19.42-4.28,20.66-10.08,1.08-10.73.92-20.91,4-31.91-6.93-35.76l-16,4.16s-3.7,3.54-5.08,16S445.82,329.84,445.82,329.84Z"/><path class="cls-34" d="M458.58,285.1a10.65,10.65,0,0,0-3.09,2.31c-.9,1.21,4.63.15,5.86,3.08s2.9,12.64,10.33,12.33,6.31-7,6.77-9.46-1.68-9.19-6.92-10.11S461.66,282.78,458.58,285.1Z"/><path class="cls-35" d="M457.8,279.55l1.08,5.53a1.53,1.53,0,0,0,1.5,1.24,28.43,28.43,0,0,0,6.47-.7c1-.23,1.54-1.26-.05-5.32l-2.13-7.55Z"/><path class="cls-36" d="M437.39,310.09l-21.84-17.76a1.28,1.28,0,0,1,.17-2.1l18.21-10.56a1.29,1.29,0,0,1,1.43.1l21.06,16.47a1.28,1.28,0,0,1-.07,2.07l-17.43,11.84A1.29,1.29,0,0,1,437.39,310.09Z"/><polygon class="cls-37" points="418.88 290.72 434.68 281.08 455.39 296.97 439.23 308.22 418.88 290.72"/><path class="cls-38" d="M421.83,287.23l1.7,1.16a.67.67,0,0,0,.73,0l7.31-4.61a.67.67,0,0,0,0-1.12l-1.48-1a.7.7,0,0,0-.71,0l-7.52,4.42A.67.67,0,0,0,421.83,287.23Z"/><path class="cls-39" d="M455.39,289.82s-2.15-.56-4.34,5.12-3.38,14.21-3.38,14.21l2.32,10a11.39,11.39,0,0,0,6.92-5.4C459.35,309.35,463.21,288.68,455.39,289.82Z"/><path class="cls-40" d="M454.12,317.65l-.55-.74a10.63,10.63,0,0,0,2.94-3.36c1.54-2.8,3.81-12.68,2.86-18.83l.91-.14c1,6.33-1.37,16.52-3,19.41A11.34,11.34,0,0,1,454.12,317.65Z"/><path class="cls-41" d="M447.09,266.71s1.73,10.72,3.62,13.09,8.72,1.54,10.1.21,4.45-8.47,3.92-11S450.72,260.37,447.09,266.71Z"/><path class="cls-42" d="M460.22,258.42c1.49.58,2.91,3.3,5.62,3.74,1.91.31,1.49,3.27.87,8.44s-3.37,6.28-5.2,6.89-4.46-3.72-6.23-5.83-3.43-3.3-6.67-3-6.57-2.21-4.32-4.37,3.78-1.34,5.62-2.47S454.49,256.18,460.22,258.42Z"/><path class="cls-43" d="M457.8,272.61s.6,5.18-8.18,4.94c0,0,.6,4,1.84,5.25s10.48.37,11.51-6.62S457.8,272.61,457.8,272.61Z"/><path class="cls-44" d="M455.94,274.12s1-6,3.43-4.52c1.69,1,.17,3.44-1,4.88a1.31,1.31,0,0,1-1.94.14Z"/><path class="cls-45" d="M426.47,301.21s2.94,2.91,4,1.62.87-2.57,1.44-3.06.52,1.53,1.08,3.06,2.11,4.39,1.18,5.85-3.78.62-5.16-.46S423.73,304.29,426.47,301.21Z"/><path class="cls-46" d="M433.27,306.74c.53-.09,5.65,3.16,9.2,3.63s5.2-1.22,5.2-1.22,3.74,3.46,3.35,8.24-14.4-.84-19.78-8.09Z"/><path class="cls-47" d="M309.11,435.09c5.45,3.15-.1,11.46-12.41,18.56S270,464,264.54,460.82s.1-11.46,12.41-18.57S303.66,431.94,309.11,435.09Z"/><path class="cls-48" d="M301.34,441.07s.7,2.33.91,3.2a10.44,10.44,0,0,1-.36,3,1.83,1.83,0,0,1-1.36,1.4,4.51,4.51,0,0,1-3.59-.65l-9.59-6.47A1.2,1.2,0,0,1,287,440l.25-.48a1.89,1.89,0,0,1,2.13-.95c2.17.55,6.2,1.47,7.63,1.1C299,439.15,301.34,441.07,301.34,441.07Z"/><path class="cls-49" d="M301.64,435.22s0,6.86-.29,7.82-3.38.93-4.22-1.14c-.71-1.74-1.1-7.45-1.1-7.45Z"/><path class="cls-50" d="M296,439.05a7.23,7.23,0,0,0,6.26.55s0-17-.65-21.66,24.64,7.71,24.64,7.71l6.47-22s-32.21-10.48-38.19-6.62C288.09,401.15,291.22,421.93,296,439.05Z"/><polygon class="cls-23" points="346.38 450.23 346.4 450.29 321.75 464.57 297.05 450.4 297.06 450.12 321.58 435.96 321.91 435.96 346.36 450.11 346.38 450.23"/><g class="cls-24"><polygon class="cls-51" points="321.71 459.62 321.71 436.52 301.68 424.95 301.51 424.9 301.51 447.88 301.64 448.11 321.56 459.62 321.71 459.62"/><polygon class="cls-52" points="341.78 424.87 341.8 424.91 321.74 436.53 301.65 425 301.66 424.77 321.61 413.25 321.88 413.25 341.77 424.77 341.78 424.87"/><polygon class="cls-53" points="321.71 436.52 321.71 459.62 321.86 459.62 341.78 448.11 341.92 447.88 341.92 424.85 341.84 424.86 341.81 424.91 321.71 436.52"/><path class="cls-54" d="M321.74,413.38l19.81,11.47-19.81,11.47-19.92-11.43Zm0-.2-20.22,11.67a.05.05,0,0,0,0,0s0,0,0,0l20.22,11.61,20.17-11.68Z"/></g><path class="cls-55" d="M289.16,446s1,2.24,1.28,3.08a10.48,10.48,0,0,1,0,3,1.84,1.84,0,0,1-1.2,1.54,4.47,4.47,0,0,1-3.63-.23l-10.28-5.33a1.2,1.2,0,0,1-.56-1.5l.2-.51a1.88,1.88,0,0,1,2-1.18c2.22.3,6.33.74,7.71.21C286.59,444.37,289.16,446,289.16,446Z"/><path class="cls-56" d="M289.8,439.82s0,6.86-.29,7.82-3.38.93-4.22-1.14c-.71-1.75-1.1-7.45-1.1-7.45Z"/><path class="cls-57" d="M283.27,442.92s3.61,2.24,7.28.73c0,0-1.05-24.12-.51-26.48s2.62-1.81,6,0c2.54,1.37,18.53,11.93,26.09,12.6s16.49-5.66,17.88-9.36,1.69-13.21,1.69-13.21l-27.28,2.57s-26.18-10.39-31.8-6.78C273.4,408.91,281.42,437.83,283.27,442.92Z"/><path class="cls-58" d="M322,357.82l1.39,6.78c.14.71.45,0,1.19,0a28.48,28.48,0,0,0,6.47-.7c1-.24,1.53-1.27-.05-5.33L328.82,351Z"/><path class="cls-59" d="M315.77,342.24s-1.64,10.73-.56,13.57,7.82,4.14,9.55,3.29,6.83-6.69,7.1-9.26S321.17,337.32,315.77,342.24Z"/><path class="cls-60" d="M330.81,338.37c1.24,1,1.76,4,4.21,5.29,1.72.88.41,3.57-1.77,8.3s-5.13,5-7.05,5-3.11-4.91-4.15-7.46-2.25-4.2-5.44-4.89-5.57-4.11-2.77-5.48,4-.12,6.11-.63S326,334.49,330.81,338.37Z"/><path class="cls-61" d="M316.17,385a38.92,38.92,0,0,1-.52-9.85c1.66-7.21,2.36-6.49,2.36-6.49,4.83-5.48,11.13-5.86,16.36-7.15,10.95,3.85,8.1,25.59,8.25,35.77s1.4,10.69-.93,14.39c-3.15,5-13.71,9.52-19.1,8.33s-7.26-1.91-7.87-6.38a10.87,10.87,0,0,0-2.12-4.55C314,404.79,317.87,393.83,316.17,385Z"/><path class="cls-62" d="M319.55,368.1s-2.16-.57-4.34,5.11-3.39,14.21-3.39,14.21l.78,10s6-1,8.47-5.4S327.37,367,319.55,368.1Z"/><path class="cls-63" d="M297.43,385c.53-.09,5.65,3.17,9.19,3.64s5.2-1.23,5.2-1.23,3.74,3.47,3.36,8.25-14.09-1-19.47-8.27Z"/><path class="cls-64" d="M297.92,386.33s-.05-5.23-2-7.14a11.41,11.41,0,0,0-7.12-2.67c-1.75,0-1.13,3.2-.26,4.56s6.2,4.19,7.09,6.1S297.92,386.33,297.92,386.33Z"/><path class="cls-65" d="M316.74,370.12a8.33,8.33,0,0,1,.73-.95c.37-.67.54-.5.54-.5h0c4.82-5.48,10.12-8.56,16.35-7.15,3,1.06,5,3.46,6.24,6.6C335.77,370.46,324.17,374.41,316.74,370.12Z"/><path class="cls-66" d="M313.46,379c.33-1.33.7-2.69,1.12-4,12.43,6.4,23.61,1.67,27.66-.53a64.87,64.87,0,0,1,.59,7.88C338.2,384.25,324.69,388.43,313.46,379Z"/><path class="cls-67" d="M317.91,395.51a.22.22,0,0,1-.19,0,.23.23,0,0,1-.16-.11l-.11-.19a.24.24,0,0,1,.08-.32,8,8,0,0,0,2.3-2.18c1.36-1.95,3.8-8.94,3.71-13.67a.36.36,0,0,1,.33-.35h.05a.38.38,0,0,1,.23.08.37.37,0,0,1,.1.23c.1,4.87-2.43,12.1-3.84,14.11A8.69,8.69,0,0,1,317.91,395.51Z"/><path class="cls-68" d="M213.54,172.62s6.33,13.19,21.79,12.73l1.25,3.41a5.43,5.43,0,0,1-2.43,6.58c-3.8,2.16-10.28,4.08-18.42-.34Z"/><ellipse class="cls-69" cx="200.15" cy="312.81" rx="30.79" ry="11.18" transform="translate(-112.26 112.04) rotate(-24.66)"/><path class="cls-70" d="M205.6,299.19a6.35,6.35,0,0,0-1.66,2.58c-.41,1.45-.83,2.9.83,3.21a7.42,7.42,0,0,1,4.24,3.1c1,1.45,3.48,1.89,6.1,2,2.12.05,2.17-1.45,2-2.18s-2.48-2.58-4.13-3.93a25.8,25.8,0,0,1-3.83-4.75Z"/><path class="cls-71" d="M190.46,310.81l-1.09,2.67a4.9,4.9,0,0,0-.27,2.83,24,24,0,0,0,1.36,4.84c.83,1.55,4.14,1.84,5.38,1.33s.71-3.57,0-6.81c-.33-1.49-1.55-4.86-1.55-4.86Z"/><path class="cls-72" d="M190.49,311.45l-.5-6.06h4.7l-.66,6.4S192,313.17,190.49,311.45Z"/><path class="cls-73" d="M205.58,300.32l-.58-7.67,5.36.5-1.23,7.17S208.47,301.23,205.58,300.32Z"/><path class="cls-74" d="M217.26,223.49s-.4,50.42-6.72,71.89c0,0-1.79,1.32-6-.75,0,0-2.86-42.33-4.18-47.17s-.73-19.31-.73-19.31Z"/><path class="cls-75" d="M188.46,230.47s-1.27,45.69-1.6,49.81S189.5,306,189.5,306a5.42,5.42,0,0,0,5.61.22s5.78-33.51,6.85-40.43,6.41-37.42,6.41-37.42Z"/><path class="cls-76" d="M193.69,173.61c1.4-1,5.85-3.56,8.09-3.94,2.71-.45,6.3,1,8.76,1.29,2.28,2,5.12,6.94,4.44,19.55-.83,15.66,1.55,32.67,1.6,42.73-2.49.47-11.07,3.53-13.62.53-.43-11.84.91-34.81-.59-45.81C201.15,179,195.92,175.46,193.69,173.61Z"/><path class="cls-77" d="M215,190.51c.68-12.61-2.16-17.59-4.44-19.55,4.25.58,6.62,7.61,7.36,11.19,1.17,5.64,1,56.34,1,56.34l-1.62.29a2.69,2.69,0,0,1-3.08-2.76C214.17,224.81,214.23,204.63,215,190.51Z"/><path class="cls-78" d="M200.39,158.59l-2.51,13.08a2.12,2.12,0,0,0,1.18,2.31,8.92,8.92,0,0,0,7.14.52,2.49,2.49,0,0,0,1.54-2.53l-.83-8.46Z"/><path class="cls-79" d="M202.37,187.75c-1.22-9-6.45-12.28-8.68-14.14a8.73,8.73,0,0,0-3.92,3.12,23.87,23.87,0,0,0-3.54,7.59c-2.77,6.88-5.56,16.83-1.84,22.79.13,12.55,1.11,28.15,3.47,35.95,0,0,2.3.71,3.12-5.68,0,0,.33,7.5,6.57,5.7,1.48-.42,3.47-.9,5.63-1.38a3,3,0,0,0,2.24-3.09C204.92,225.35,203.78,198.08,202.37,187.75Z"/><path class="cls-80" d="M207.57,210.22c-2.09-.56-10.48-6.82-13.71-9.27a2.61,2.61,0,0,0-3.19,0,5,5,0,0,0-1.86,4,3.21,3.21,0,0,0,2.16,3.13l13.45,4.64s3,6.56,7.65,7.22,4.91-4.34,5.18-6.06S210.16,210.91,207.57,210.22Z"/><path class="cls-81" d="M192.25,199.6a.4.4,0,0,1-.36-.22c-2.1-4.53.94-11.56,1.07-11.86a.38.38,0,0,1,.51-.2.38.38,0,0,1,.2.51c0,.07-3,7-1.07,11.22a.38.38,0,0,1-.19.51A.32.32,0,0,1,192.25,199.6Z"/><path class="cls-82" d="M229.37,189.17a2,2,0,0,1,.41-2c2.14-2.42,8.32-9.58,9.18-12.79,1-3.89-.33-6-.78-7.94s1.45-1.22,1.95.64,2.09-.82,2.43-1.63,1.76-5.09,3.48-5.53,4,3.33.89,10.35a19.91,19.91,0,0,0-3.79,6.2,133.25,133.25,0,0,1-6.49,15.45,2.79,2.79,0,0,1-3.76,1.24A7,7,0,0,1,229.37,189.17Z"/><path class="cls-83" d="M211.26,154.66s1.24,8.8-.36,12.6-4.12,2-6.66,1.09-6.83-7.57-6.83-7.57S202.89,144.91,211.26,154.66Z"/><path class="cls-84" d="M212,150.65a.89.89,0,0,0,.35,1.12l.13.36a2.31,2.31,0,0,1-.46,2.32l-.44.49a1.89,1.89,0,0,0-2.66.58c-1.22,1.7-4.59,1.16-8.6,1.91-1.48.27-1.29,2.51-.95,4.69.39,2.47-1.11,1.87-1.52,1.06a20.25,20.25,0,0,0-2.8-4.29,2.77,2.77,0,0,0-1.61-.55.88.88,0,0,1-.76-1.23l.47-1.11L191,154.89a1.82,1.82,0,0,1,.31-3.35l1.61-.49a.89.89,0,0,0,.62-.93l-.12-1.54a2,2,0,0,1,2.9-2l.26.12a.89.89,0,0,0,1.28-.77.89.89,0,0,1,1.34-.75l.41.24a.89.89,0,0,0,1.32-.59l.16-.79a.89.89,0,0,1,1.72-.1l.1.29a.89.89,0,0,0,1.57.23l.22-.31a.89.89,0,0,1,1.63.5v.18a.89.89,0,0,0,1.36.75l.67-.41a.89.89,0,0,1,1.33,1l-.07.3a.89.89,0,0,0,1.2,1.05l1.06-.44a.89.89,0,0,1,1.15,1.19Z"/><path class="cls-85" d="M201.1,159.72s-3.25-2.42-3.88-.56,3,3.5,3,3.5Z"/><path class="cls-86" d="M477.94,426.43s.7,2.34.91,3.2a10.46,10.46,0,0,1-.36,3,1.85,1.85,0,0,1-1.37,1.4,4.53,4.53,0,0,1-3.58-.65L464,426.91a1.19,1.19,0,0,1-.39-1.55l.26-.49a1.86,1.86,0,0,1,2.12-.94c2.17.55,6.2,1.46,7.63,1.1C475.57,424.51,477.94,426.43,477.94,426.43Z"/><path class="cls-87" d="M478.23,420.59s0,6.85-.29,7.82-3.38.92-4.21-1.14c-.71-1.75-1.1-7.45-1.1-7.45Z"/><path class="cls-88" d="M472.63,424.42a7.24,7.24,0,0,0,6.25.55s0-17-.65-21.66S502.87,411,502.87,411l6.48-22s-32.21-10.47-38.2-6.62C464.69,386.51,467.82,407.29,472.63,424.42Z"/><polygon class="cls-23" points="521.88 437.72 521.91 437.78 497.25 452.06 472.55 437.88 472.56 437.61 497.09 423.45 497.41 423.45 521.87 437.6 521.88 437.72"/><g class="cls-24"><polygon class="cls-89" points="497.21 447.11 497.21 424.01 477.18 412.44 477.01 412.38 477.01 435.37 477.14 435.6 497.07 447.11 497.21 447.11"/><polygon class="cls-90" points="517.28 412.36 517.3 412.4 497.25 424.01 477.15 412.49 477.17 412.26 497.11 400.74 497.38 400.74 517.27 412.26 517.28 412.36"/><polygon class="cls-91" points="497.21 424.01 497.21 447.11 497.36 447.11 517.29 435.6 517.42 435.37 517.42 412.34 517.35 412.35 517.31 412.4 497.21 424.01"/><path class="cls-92" d="M497.25,400.87l19.81,11.47-19.81,11.47-19.93-11.43Zm0-.2L477,412.34a.05.05,0,0,0,0,0s0,0,0,0L497.25,424l20.17-11.67Z"/></g><path class="cls-93" d="M458.38,361.64l8.68,13.69c.5.78,1.33.95,3.34-.51l16.08-12.69c1.35-1.06,1.57-1.89,1.2-2.88L479,345.55c-.72-1.32-1.63-1-3,.06L459.93,358.3C457.8,359.9,457.89,360.86,458.38,361.64Z"/><path class="cls-94" d="M459,361.11l8.68,13.7c.49.78,1.33.95,3.33-.51l16.09-12.69c1.35-1.07,1.57-1.89,1.19-2.88L479.63,345c-.73-1.32-1.63-1-3,.06l-16.09,12.69C458.44,359.38,458.52,360.34,459,361.11Z"/><path class="cls-95" d="M487.25,359.39c.21.33-.08.95-.65,1.4l-16.08,12.69c-.57.44-1.2.54-1.4.21L460.43,360c-.2-.33.09-1,.65-1.4l16.09-12.69c.56-.45,1.19-.54,1.4-.22Z"/><polygon class="cls-96" points="482.71 356.08 485.37 360.29 470.5 372.01 467.83 367.81 482.71 356.08"/><polygon class="cls-96" points="464.63 357.27 469.92 365.61 467.6 367.44 462.31 359.1 464.63 357.27"/><polygon class="cls-96" points="480.5 352.61 482.47 355.71 471 364.76 469.03 361.65 480.5 352.61"/><polygon class="cls-96" points="478.22 349.01 480.19 352.11 468.72 361.16 466.75 358.06 478.22 349.01"/><polygon class="cls-96" points="477.19 347.37 477.91 348.52 466.44 357.56 465.71 356.42 477.19 347.37"/><path class="cls-97" d="M476.86,354l6.6-3,5.13,2.26s-1.46,3.2-2.64,3.45-3.66,1.11-4.3.75c0,0-.39-.91,1.21-1.24s.79-.84,0-1.94S477.82,355.77,476.86,354Z"/><polygon class="cls-98" points="488.59 353.25 504.13 357.54 499.58 365.66 486.27 355.43 488.59 353.25"/><path class="cls-99" d="M450.81,425s1,2.24,1.27,3.08a10.41,10.41,0,0,1,0,3,1.84,1.84,0,0,1-1.2,1.55,4.51,4.51,0,0,1-3.63-.23L437,427a1.2,1.2,0,0,1-.57-1.5l.2-.51a1.87,1.87,0,0,1,2-1.18c2.22.29,6.33.74,7.71.21C448.23,423.32,450.81,425,450.81,425Z"/><path class="cls-100" d="M454.25,419.62s-2.83,6-3.1,7-3.38.92-4.21-1.14c-.71-1.75,1.7-6.59,1.7-6.59Z"/><path class="cls-101" d="M446.8,421.25s3.78,3.68,7.45,2.17c0,0,6.61-15.48,9.57-21.74,1-2.19,5.44-.95,8.81.86,2.54,1.36,18.53,11.93,26.08,12.59s16.5-5.66,17.88-9.36,1.7-13.21,1.7-13.21L491,395.14s-26-10.1-31.79-6.79C454.25,391.19,448.15,404.91,446.8,421.25Z"/><path class="cls-102" d="M486.58,393.48a6.69,6.69,0,0,1,4.73,5.51c.62,4.47.93,13.45,6.32,14.65s19.43-4.28,20.66-10.08,1.08-10.74.93-20.91c-.15-9.71,3.63-30-5.54-35.13a3.57,3.57,0,0,0-2.68-.3l-12.38,3.21a6.31,6.31,0,0,0-4.09,3.3c-1.16,2.36-2.61,6.52-3.37,13.35C489.77,379.57,486.58,393.48,486.58,393.48Z"/><path class="cls-103" d="M499.68,344.22l1.07,5.53a1.53,1.53,0,0,0,1.5,1.24,28.33,28.33,0,0,0,6.47-.69c1-.24,1.54-1.27-.05-5.33l-2.13-7.55Z"/><path class="cls-104" d="M490.65,332.41s1.6,10,3.36,12.17,8.1,1.43,9.39.19,4.14-7.87,3.64-10.22S494,326.52,490.65,332.41Z"/><path class="cls-105" d="M505.7,322.48c3.41,1.34,2.42,3.89,4.94,4.3,1.77.29,3.12,5.63,1.55,9.36-1.87,4.46-6.44,5.73-8.14,6.29s-4.14-3.45-5.79-5.41-3.19-3.08-6.2-2.78-6.52-1.8-5.28-4.42c1.43-3,3.93-2.95,5.63-4S500.37,320.4,505.7,322.48Z"/><path class="cls-106" d="M498.87,339.3s.9-5.54,3.19-4.2c1.58.92.16,3.19-.89,4.53a1.22,1.22,0,0,1-1.81.13Z"/><path class="cls-107" d="M464.22,370.84s3.4,2.47,4,.94.07-2.71.47-3.35.95,1.3,1.94,2.6,3.31,3.57,2.86,5.24-3.42,1.71-5.07,1.09S462.51,374.6,464.22,370.84Z"/><path class="cls-108" d="M472.08,374.67c.49-.24,6.38,1.54,9.86.74,5-1.14,9.22-8.33,10.73-14.29a3,3,0,0,1,3.83-1.82c2.06.67,4.4,2,4.21,4.75-1.64,23-22.52,19-29.8,13.67Z"/><path class="cls-109" d="M491.32,364.76s3.75-1.56,8.91,3,3.62-13.52,3.62-13.52l-8-2.34S489.23,359.14,491.32,364.76Z"/><polygon class="cls-23" points="443 483.48 443.03 483.54 418.38 497.81 393.67 483.64 393.69 483.36 418.21 469.2 418.54 469.2 442.99 483.36 443 483.48"/><g class="cls-24"><polygon class="cls-110" points="418.34 492.86 418.34 469.76 398.31 458.2 398.13 458.14 398.13 481.13 398.27 481.36 418.19 492.86 418.34 492.86"/><polygon class="cls-111" points="438.41 458.11 438.43 458.16 418.37 469.77 398.28 458.24 398.29 458.02 418.24 446.5 418.5 446.5 438.4 458.01 438.41 458.11"/><polygon class="cls-112" points="418.34 469.76 418.34 492.86 418.49 492.86 438.41 481.36 438.54 481.13 438.54 458.1 438.47 458.1 438.44 458.16 418.34 469.76"/><path class="cls-113" d="M418.37,446.63l19.81,11.47-19.81,11.47-19.92-11.44Zm0-.21L398.15,458.1l0,0a.05.05,0,0,0,0,0l20.22,11.6,20.17-11.67Z"/></g><path class="cls-114" d="M406.2,395.8s10.39,11.43,16.49,9.81-3.42,11.48-3.42,11.48-9.62-4.08-15-16.81Z"/><path class="cls-115" d="M386.48,392.29a15.78,15.78,0,0,1-.2,5.89l-3.49,1.7-1.55-3.05-.95-9.13Z"/><path class="cls-116" d="M382.54,462.48s.7,2.34.91,3.21a10.44,10.44,0,0,1-.36,3,1.85,1.85,0,0,1-1.37,1.4,4.49,4.49,0,0,1-3.58-.65L368.55,463a1.2,1.2,0,0,1-.39-1.56l.26-.49a1.89,1.89,0,0,1,2.12-.94c2.17.55,6.2,1.47,7.63,1.1C380.17,460.56,382.54,462.48,382.54,462.48Z"/><path class="cls-117" d="M382.84,456.64s0,6.86-.3,7.82-3.38.93-4.21-1.14c-.71-1.75-1.1-7.45-1.1-7.45Z"/><path class="cls-118" d="M385.49,478.68s1,2.24,1.27,3.07a10.49,10.49,0,0,1,0,3,1.82,1.82,0,0,1-1.2,1.54,4.47,4.47,0,0,1-3.63-.23l-10.27-5.32a1.2,1.2,0,0,1-.57-1.5l.2-.52a1.89,1.89,0,0,1,2-1.18c2.21.3,6.32.74,7.7.21C382.91,477,385.49,478.68,385.49,478.68Z"/><path class="cls-119" d="M386.13,472.49s0,6.86-.3,7.82-3.38.93-4.21-1.13c-.71-1.75-1.1-7.46-1.1-7.46Z"/><path class="cls-120" d="M378.93,459.92a6.82,6.82,0,0,0,6.41,1.2s2-17.81,10-13.59c4.12,2.18,27.25,10.79,27.25,10.79l6.48-22s-32.22-10.48-38.2-6.62C384.41,433.82,374.12,442.8,378.93,459.92Z"/><path class="cls-121" d="M379.59,475.59s3.61,2.24,7.28.73c0,0-1-24.11-.5-26.48s2.62-1.81,6,0c2.54,1.37,18.54,11.94,26.09,12.6s16.49-5.66,17.88-9.36,1.7-13.21,1.7-13.21l-27.29,2.57s-26.18-10.39-31.8-6.78C369.73,441.58,377.74,470.5,379.59,475.59Z"/><path class="cls-122" d="M418.29,390.49l1.39,6.78c.14.72.45,0,1.18,0a28.43,28.43,0,0,0,6.47-.7c1-.24,1.54-1.26,0-5.32l-2.14-7.55Z"/><path class="cls-123" d="M412.1,374.91s-1.65,10.74-.57,13.57,7.82,4.14,9.55,3.3,6.83-6.69,7.1-9.27S417.49,370,412.1,374.91Z"/><path class="cls-124" d="M427.13,371.05c1,1.23,3.24.54,5.32,3.3,1.16,1.55-.7,5.55-2.88,10.28s-5.13,4.95-7.05,5-3.11-4.91-4.15-7.46-2.25-4.2-5.44-4.89-5.57-4.11-2.77-5.47S421.55,364.28,427.13,371.05Z"/><path class="cls-125" d="M412.49,417.68a38.92,38.92,0,0,1-.52-9.85c1.66-7.21,2.37-6.49,2.37-6.49,4.82-5.48,11.13-5.86,16.36-7.15,10.94,3.86,8.09,25.59,8.24,35.77s1.4,10.69-.92,14.39c-3.16,5-13.72,9.53-19.11,8.33s-7.25-1.91-7.87-6.38a10.75,10.75,0,0,0-2.12-4.55C410.28,437.46,414.19,426.5,412.49,417.68Z"/><path class="cls-126" d="M415.23,400.4s-16.85,14.19-28.34-2.55c0,0-2.49-1.59-4.18,2,0,0,5.85,22.85,33.66,14.95C416.37,414.83,421,406.86,415.23,400.4Z"/><path class="cls-127" d="M388.68,391.71c-.85-2.06-3.42-8.25-4.37-10.53a.82.82,0,0,0-1.17-.39l-4.5,2.57a.82.82,0,0,0-.34,1.06l4.79,10.22a.82.82,0,0,0,1.14.37l4.09-2.27A.82.82,0,0,0,388.68,391.71Z"/><path class="cls-128" d="M384.59,397s1.2-5,.56-5.73-1.7.63-1.67,1.67-.69,2.27-1.17,0c-.21-.94-2.69-5.74-2.69-5.74s0,5.49.22,7.35,2.65,4.06,2.65,4.06Z"/><path class="cls-129" d="M381.9,383.22c.28-.1.46-.34.39-.52s-.35-.26-.64-.16-.46.34-.39.53S381.61,383.32,381.9,383.22Z"/><path class="cls-130" d="M403.15,393.43s-6.83-3-8.52-2.78.43,2.21,3.3,2.75c1.49.28-1.13,4.77,3.42,7C404.76,402.11,409.93,396,403.15,393.43Z"/><g class="cls-131"><polygon class="cls-132" points="49.52 245.18 43.95 248.39 43.95 224.51 49.52 221.3 49.52 245.18"/><polygon class="cls-132" points="57.64 240.49 52.07 243.7 52.07 212.31 57.64 209.09 57.64 240.49"/><polygon class="cls-132" points="65.77 235.8 60.19 239.01 60.19 213.33 65.77 210.12 65.77 235.8"/><polygon class="cls-132" points="73.89 231.11 68.32 234.32 68.32 201.45 73.89 198.23 73.89 231.11"/><polygon class="cls-132" points="82.01 226.42 76.44 229.63 76.44 217.89 82.01 214.67 82.01 226.42"/><polygon class="cls-132" points="272.37 152.43 265.72 156.27 265.72 135.09 272.37 131.24 272.37 152.43"/><polygon class="cls-132" points="282.08 146.83 275.42 150.67 275.42 120.5 282.08 116.66 282.08 146.83"/><polygon class="cls-132" points="291.79 141.22 285.13 145.07 285.13 129.07 291.79 125.23 291.79 141.22"/><polygon class="cls-132" points="301.49 135.62 294.83 139.46 294.83 114.87 301.49 111.03 301.49 135.62"/><polygon class="cls-132" points="311.2 130.01 304.54 133.86 304.54 97.78 311.2 93.93 311.2 130.01"/><path class="cls-132" d="M145,269.19a1,1,0,0,1,.52,1.95l-8.63,5a1,1,0,0,1-1-1.81l8.63-5A1.07,1.07,0,0,1,145,269.19Z"/><path class="cls-132" d="M131.26,277.11a1,1,0,0,1,.53,1.94L107,293.38a1,1,0,0,1-1-1.81l24.81-14.32A1,1,0,0,1,131.26,277.11Z"/><path class="cls-132" d="M145,261.24a1,1,0,0,1,.52,1.95l-19.31,11.14a1,1,0,1,1-1-1.8l19.31-11.15A1,1,0,0,1,145,261.24Z"/><path class="cls-132" d="M120.58,275.32a1.06,1.06,0,0,1,.91.52,1,1,0,0,1-.38,1.43l-20.58,11.88a1,1,0,1,1-1-1.81l20.58-11.88A1.13,1.13,0,0,1,120.58,275.32Z"/><path class="cls-132" d="M145,247.64a1,1,0,0,1,.9.52,1,1,0,0,1-.38,1.42l-8.63,5a1,1,0,1,1-1-1.8l8.63-5A1,1,0,0,1,145,247.64Z"/><path class="cls-132" d="M131.26,255.55a1,1,0,0,1,.53,1.95L107,271.83a1,1,0,0,1-1.42-.39,1,1,0,0,1,.38-1.42l24.81-14.33A1.13,1.13,0,0,1,131.26,255.55Z"/><path class="cls-132" d="M145,239.69a1,1,0,0,1,.9.52,1,1,0,0,1-.38,1.42l-19.31,11.15a1,1,0,1,1-1-1.81l19.31-11.15A1.06,1.06,0,0,1,145,239.69Z"/><path class="cls-132" d="M120.58,253.77a1,1,0,0,1,.53,1.95L100.53,267.6a1.06,1.06,0,0,1-1.43-.39,1,1,0,0,1,.38-1.42l20.58-11.88A1,1,0,0,1,120.58,253.77Z"/><path class="cls-132" d="M145,282.55a1,1,0,0,1,.9.52,1,1,0,0,1-.38,1.42l-11.6,6.7a1,1,0,1,1-1-1.81l11.6-6.7A1.06,1.06,0,0,1,145,282.55Z"/><path class="cls-132" d="M106.91,304.52a1,1,0,0,1,.52,2l-7,4.06a1,1,0,0,1-1-1.81l7-4.06A1.07,1.07,0,0,1,106.91,304.52Z"/><path class="cls-132" d="M128.29,292.18a1,1,0,0,1,.91.52,1,1,0,0,1-.38,1.42l-16.57,9.57a1,1,0,1,1-1-1.81l16.57-9.56A1,1,0,0,1,128.29,292.18Z"/><path class="cls-132" d="M145,290.5a1,1,0,0,1,.9.52,1,1,0,0,1-.38,1.42L130,301.38a1,1,0,0,1-1.05-1.81l15.49-8.93A1,1,0,0,1,145,290.5Z"/><path class="cls-132" d="M124.41,302.37a1,1,0,0,1,.52,1.95l-16.59,9.58a1.06,1.06,0,0,1-1.43-.38,1,1,0,0,1,.38-1.43l16.6-9.58A1.07,1.07,0,0,1,124.41,302.37Z"/><path class="cls-132" d="M255.25,94.32a1.6,1.6,0,0,0,1.38-1.18,37.63,37.63,0,0,0,1.29-9.41c0-13.83-9.42-19.68-21.29-13.62a1.61,1.61,0,0,0-.87,1.42V95.68a.55.55,0,0,0,.18.4.58.58,0,0,0,.42.14Z"/><path class="cls-132" d="M232.43,73a.66.66,0,0,0-1-.55c-11.79,7.68-21.12,24.33-21.12,38.08,0,6.45,2,11.16,5.43,13.74a.91.91,0,0,0,.73.17.89.89,0,0,0,.6-.44l15-25.88a3.29,3.29,0,0,0,.44-1.65Z"/><path class="cls-132" d="M235.75,99.24a1.13,1.13,0,0,0-.87.57L219.76,126a.73.73,0,0,0-.06.61.76.76,0,0,0,.42.46c4,1.63,9.12,1,14.77-2.23,9.06-5.23,16.87-15.86,20.48-26.77a.54.54,0,0,0-.09-.52.56.56,0,0,0-.48-.2Z"/><polygon class="cls-132" points="154.9 275.05 167.76 267.63 167.76 282.38 154.9 289.8 154.9 275.05"/><polygon class="cls-132" points="154.9 252.16 167.76 244.74 167.76 259.49 154.9 266.91 154.9 252.16"/><polygon class="cls-132" points="154.9 229.81 167.76 222.38 167.76 237.14 154.9 244.56 154.9 229.81"/><path class="cls-132" d="M235.34,249.75a1.11,1.11,0,0,1-.56-2.08l9.21-5.31a1.11,1.11,0,0,1,1.11,1.93l-9.21,5.31A1.08,1.08,0,0,1,235.34,249.75Z"/><path class="cls-132" d="M250,241.3a1.11,1.11,0,0,1-.55-2.08l26.48-15.29a1.12,1.12,0,1,1,1.12,1.93l-26.49,15.29A1.15,1.15,0,0,1,250,241.3Z"/><path class="cls-132" d="M281.66,223a1.11,1.11,0,0,1-.55-2.08l16.08-9.29a1.12,1.12,0,0,1,1.52.41,1.11,1.11,0,0,1-.41,1.52l-16.08,9.29A1.15,1.15,0,0,1,281.66,223Z"/><path class="cls-132" d="M235.34,258.24a1.11,1.11,0,0,1-.56-2.08l20.61-11.9a1.12,1.12,0,0,1,1.52.41,1.11,1.11,0,0,1-.41,1.52l-20.61,11.9A1.08,1.08,0,0,1,235.34,258.24Z"/><path class="cls-132" d="M261.38,243.21a1.11,1.11,0,0,1-.56-2.08l22-12.68a1.11,1.11,0,1,1,1.11,1.92l-22,12.69A1.08,1.08,0,0,1,261.38,243.21Z"/><path class="cls-132" d="M288.55,227.52a1.11,1.11,0,0,1-.56-2.08l9.2-5.31a1.12,1.12,0,0,1,1.52.41,1.11,1.11,0,0,1-.41,1.52l-9.2,5.31A1.11,1.11,0,0,1,288.55,227.52Z"/><path class="cls-132" d="M235.34,241.27a1.11,1.11,0,0,1-.56-2.08L247.16,232a1.11,1.11,0,1,1,1.11,1.93l-12.38,7.15A1.08,1.08,0,0,1,235.34,241.27Z"/><path class="cls-132" d="M276,217.8a1.11,1.11,0,0,1-.56-2.08l7.5-4.33a1.12,1.12,0,0,1,1.52.41,1.11,1.11,0,0,1-.41,1.52l-7.5,4.33A1.08,1.08,0,0,1,276,217.8Z"/><path class="cls-132" d="M253.15,231a1.13,1.13,0,0,1-1-.55,1.11,1.11,0,0,1,.41-1.53l17.69-10.21a1.11,1.11,0,1,1,1.11,1.93L253.7,230.83A1.08,1.08,0,0,1,253.15,231Z"/><path class="cls-132" d="M288.68,210.47a1.11,1.11,0,0,1-.56-2.08l9.07-5.24a1.12,1.12,0,0,1,1.52.41,1.1,1.1,0,0,1-.41,1.52l-9.07,5.24A1.08,1.08,0,0,1,288.68,210.47Z"/><path class="cls-132" d="M235.34,232.78a1.11,1.11,0,0,1-.56-2.08l16.53-9.54a1.11,1.11,0,0,1,1.52.4,1.12,1.12,0,0,1-.41,1.53l-16.53,9.54A1.08,1.08,0,0,1,235.34,232.78Z"/><path class="cls-132" d="M257.29,220.1a1.12,1.12,0,0,1-.56-2.08l17.72-10.23a1.12,1.12,0,0,1,1.52.41,1.1,1.1,0,0,1-.41,1.52L257.85,220A1.15,1.15,0,0,1,257.29,220.1Z"/><path class="cls-132" d="M280.21,206.87a1.11,1.11,0,0,1-.56-2.08l17.54-10.12a1.11,1.11,0,1,1,1.11,1.93l-17.54,10.12A1.08,1.08,0,0,1,280.21,206.87Z"/><path class="cls-132" d="M35.6,294.18A1.11,1.11,0,0,1,35,292.1l26.49-15.29a1.11,1.11,0,1,1,1.11,1.93L36.15,294A1.08,1.08,0,0,1,35.6,294.18Z"/><path class="cls-132" d="M67.29,275.88a1.13,1.13,0,0,1-1-.55,1.11,1.11,0,0,1,.41-1.52l16.08-9.29a1.12,1.12,0,1,1,1.12,1.93l-16.09,9.29A1.07,1.07,0,0,1,67.29,275.88Z"/><path class="cls-132" d="M47,296.08a1.14,1.14,0,0,1-1-.55,1.12,1.12,0,0,1,.41-1.52l22-12.69a1.12,1.12,0,0,1,1.12,1.93l-22,12.69A1.14,1.14,0,0,1,47,296.08Z"/><path class="cls-132" d="M74.17,280.4a1.11,1.11,0,0,1-.56-2.08l9.2-5.31a1.12,1.12,0,1,1,1.12,1.93l-9.2,5.31A1.15,1.15,0,0,1,74.17,280.4Z"/><path class="cls-132" d="M61.6,270.68A1.12,1.12,0,0,1,61,268.6l7.51-4.33a1.11,1.11,0,0,1,1.11,1.93l-7.5,4.33A1.15,1.15,0,0,1,61.6,270.68Z"/><path class="cls-132" d="M38.77,283.86a1.11,1.11,0,0,1-.56-2.08L55.9,271.57A1.11,1.11,0,1,1,57,273.5L39.33,283.71A1.15,1.15,0,0,1,38.77,283.86Z"/><path class="cls-132" d="M74.3,263.35a1.11,1.11,0,0,1-.55-2.08L82.81,256A1.12,1.12,0,1,1,83.93,258l-9.07,5.24A1.15,1.15,0,0,1,74.3,263.35Z"/><path class="cls-132" d="M42.92,273a1.11,1.11,0,0,1-.56-2.08l17.72-10.23a1.11,1.11,0,0,1,1.11,1.93L43.47,272.83A1.08,1.08,0,0,1,42.92,273Z"/><path class="cls-132" d="M65.83,259.75a1.11,1.11,0,0,1-.55-2.08l17.53-10.13a1.13,1.13,0,0,1,1.53.41,1.12,1.12,0,0,1-.41,1.52L66.39,259.6A1.15,1.15,0,0,1,65.83,259.75Z"/><polygon class="cls-132" points="278.05 181.16 268.21 186.84 268.21 175.55 278.05 169.87 278.05 181.16"/><polygon class="cls-132" points="296.91 170.28 287.07 175.96 287.07 164.67 296.91 158.98 296.91 170.28"/><polygon class="cls-132" points="315.76 159.39 305.92 165.07 305.92 153.78 315.76 148.1 315.76 159.39"/><polygon class="cls-132" points="334.62 148.5 324.78 154.19 324.78 142.89 334.62 137.21 334.62 148.5"/><polygon class="cls-132" points="353.48 137.62 343.63 143.3 343.63 132.01 353.48 126.33 353.48 137.62"/><polygon class="cls-132" points="353.48 133.23 268.21 182.45 268.21 179.94 353.48 130.72 353.48 133.23"/><path class="cls-132" d="M319,161.26l-16.4,9.47V151.91l16.4-9.47Zm-15.3,7.58,14.21-8.2V144.33l-14.21,8.2Z"/></g></g></g></g></svg>