<svg width="37" height="36" viewBox="0 0 37 36" fill="none" xmlns="http://www.w3.org/2000/svg">
<path fill-rule="evenodd" clip-rule="evenodd" d="M15.5119 0C14.5454 0 13.7619 0.783499 13.7619 1.75V4.29784C12.8598 4.58758 11.9967 4.9642 11.1827 5.41776L9.61348 3.84858C8.93006 3.16516 7.82202 3.16516 7.1386 3.84858L3.52435 7.46283C2.84093 8.14625 2.84093 9.25429 3.52435 9.93771L5.259 11.6724C4.93479 12.3373 4.66046 13.0311 4.44092 13.7488H1.75C0.783501 13.7488 0 14.5323 0 15.4988V20.6102C0 21.5767 0.7835 22.3602 1.75 22.3602H4.50898C4.69082 22.9225 4.90643 23.4696 5.15342 23.999L3.20014 25.9523C2.51672 26.6357 2.51672 27.7437 3.20014 28.4272L6.81439 32.0414C7.49781 32.7248 8.60585 32.7248 9.28926 32.0414L10.9742 30.3565C11.849 30.8632 12.7825 31.2803 13.762 31.5949V33.7643C13.762 34.7308 14.5455 35.5143 15.512 35.5143H18.5732V23.1374L17.8639 23.0989C15.1467 22.9515 12.9883 20.7008 12.9883 17.9464C12.9883 15.192 15.1467 12.9412 17.8639 12.7938L18.5732 12.7554V0H15.5119ZM15.2619 1.75C15.2619 1.61193 15.3738 1.5 15.5119 1.5H17.0732V11.3726C13.9059 11.8868 11.4883 14.6341 11.4883 17.9464C11.4883 21.2587 13.9059 24.0059 17.0732 24.5202V34.0143H15.512C15.374 34.0143 15.262 33.9024 15.262 33.7643V30.4662L14.7124 30.3138C13.4782 29.9716 12.3185 29.4495 11.2633 28.7772L10.7556 28.4538L8.2286 30.9808C8.13097 31.0784 7.97268 31.0784 7.87505 30.9808L4.2608 27.3665C4.16317 27.2689 4.16317 27.1106 4.2608 27.0129L6.97992 24.2938L6.72968 23.8073C6.33931 23.0484 6.02247 22.2456 5.78848 21.4083L5.63529 20.8602H1.75C1.61193 20.8602 1.5 20.7482 1.5 20.6102V15.4988C1.5 15.3608 1.61193 15.2488 1.75 15.2488H5.58666L5.73321 14.6887C5.99129 13.7022 6.36389 12.762 6.83608 11.883L7.09987 11.3919L4.58501 8.87704C4.48738 8.77941 4.48738 8.62112 4.58501 8.52349L8.19926 4.90924C8.2969 4.8116 8.45519 4.81161 8.55282 4.90924L10.9492 7.30565L11.4534 6.99669C12.4572 6.38149 13.5518 5.90066 14.7123 5.57894L15.2619 5.42656V1.75Z" fill="#518B9D"/>
<path fill-rule="evenodd" clip-rule="evenodd" d="M18.5083 21.7912C18.3898 21.8022 18.2698 21.8078 18.1485 21.8078C16.0159 21.8078 14.2871 20.079 14.2871 17.9464C14.2871 15.8138 16.0159 14.085 18.1485 14.085C18.2698 14.085 18.3898 14.0906 18.5082 14.1015L22.5084 4.93727C22.6277 4.66397 22.8976 4.4873 23.1958 4.4873H26.2722C26.5032 3.20218 27.6271 2.22705 28.9788 2.22705C30.4975 2.22705 31.7288 3.45827 31.7288 4.97705C31.7288 6.49583 30.4975 7.72705 28.9788 7.72705C27.8167 7.72705 26.8229 7.00623 26.4203 5.9873H23.6868L19.9564 14.5334C20.3245 14.7288 20.6572 14.982 20.9425 15.281L24.7007 11.0035C24.8431 10.8414 25.0484 10.7485 25.2641 10.7485H28.5534C28.8339 9.52742 29.9274 8.6167 31.2336 8.6167C32.7524 8.6167 33.9836 9.84792 33.9836 11.3667C33.9836 12.8855 32.7524 14.1167 31.2336 14.1167C30.0233 14.1167 28.9956 13.3348 28.6281 12.2485H25.6035L21.9196 16.4415C21.872 16.4956 21.8184 16.5413 21.7606 16.5783C21.8359 16.777 21.8952 16.9835 21.9371 17.1963H31.0945C31.3534 15.9463 32.4607 15.0068 33.7874 15.0068C35.3061 15.0068 36.5374 16.2381 36.5374 17.7568C36.5374 19.2756 35.3061 20.5068 33.7874 20.5068C32.5985 20.5068 31.5859 19.7525 31.202 18.6963H21.9372C21.909 18.8394 21.8729 18.9798 21.8294 19.1168C21.8612 19.1427 21.8913 19.1717 21.9193 19.2036L25.6033 23.3965H28.5872C28.9136 22.2422 29.9749 21.3965 31.2336 21.3965C32.7524 21.3965 33.9836 22.6277 33.9836 24.1465C33.9836 25.6653 32.7524 26.8965 31.2336 26.8965C29.9749 26.8965 28.9136 26.0507 28.5872 24.8965H25.2639C25.0482 24.8965 24.8429 24.8036 24.7005 24.6415L21.0534 20.4905C20.7448 20.8425 20.3733 21.138 19.9564 21.3593L23.6868 29.9053H26.3016C26.5869 28.6908 27.6772 27.7866 28.9788 27.7866C30.4975 27.7866 31.7288 29.0178 31.7288 30.5366C31.7288 32.0554 30.4975 33.2866 28.9788 33.2866C27.7635 33.2866 26.7324 32.4984 26.3688 31.4053H23.1958C22.8976 31.4053 22.6277 31.2286 22.5084 30.9553L18.5083 21.7912ZM20.5099 17.9464C20.5099 19.2505 19.4527 20.3078 18.1485 20.3078C16.8443 20.3078 15.7871 19.2505 15.7871 17.9464C15.7871 16.6422 16.8443 15.585 18.1485 15.585C19.4527 15.585 20.5099 16.6422 20.5099 17.9464ZM35.0374 17.7568C35.0374 18.4472 34.4777 19.0068 33.7874 19.0068C33.097 19.0068 32.5374 18.4472 32.5374 17.7568C32.5374 17.0665 33.097 16.5068 33.7874 16.5068C34.4777 16.5068 35.0374 17.0665 35.0374 17.7568ZM31.2336 12.6167C31.924 12.6167 32.4836 12.0571 32.4836 11.3667C32.4836 10.6763 31.924 10.1167 31.2336 10.1167C30.5433 10.1167 29.9836 10.6763 29.9836 11.3667C29.9836 12.0571 30.5433 12.6167 31.2336 12.6167ZM30.2288 4.97705C30.2288 5.66741 29.6691 6.22705 28.9788 6.22705C28.2884 6.22705 27.7288 5.66741 27.7288 4.97705C27.7288 4.2867 28.2884 3.72705 28.9788 3.72705C29.6691 3.72705 30.2288 4.2867 30.2288 4.97705ZM28.9788 31.7866C29.6691 31.7866 30.2288 31.227 30.2288 30.5366C30.2288 29.8463 29.6691 29.2866 28.9788 29.2866C28.2884 29.2866 27.7288 29.8463 27.7288 30.5366C27.7288 31.227 28.2884 31.7866 28.9788 31.7866ZM32.4836 24.1465C32.4836 24.8368 31.924 25.3965 31.2336 25.3965C30.5433 25.3965 29.9836 24.8368 29.9836 24.1465C29.9836 23.4561 30.5433 22.8965 31.2336 22.8965C31.924 22.8965 32.4836 23.4561 32.4836 24.1465Z" fill="#518B9D"/>
</svg>
