<svg xmlns="http://www.w3.org/2000/svg" xmlns:xlink="http://www.w3.org/1999/xlink" width="50" height="50" viewBox="0 0 50 50" fill="none">
<rect  x="0" y="0" width="50" height="50" rx="8"    fill="#2405F2" >
</rect>
<g mask="url(#mask-N3P7rkx-Id)">
<rect  x="-26" y="27" width="50" height="50" rx="8"    fill="#FCD980" >
</rect>
</g>
<g mask="url(#mask-N3P7rkx-Id)">
<rect  x="8" y="-9" width="50" height="50" rx="8"    fill="#5239FA" >
</rect>
</g>
<g >
<path     fill="#FFFFFF"  d="M15.936 24.856Q15.936 27.898 17.016 29.617Q18.096 31.336 20.616 31.336Q23.136 31.336 24.216 29.608Q25.296 27.88 25.296 24.856Q25.296 21.85 24.216 20.131Q23.136 18.412 20.616 18.412Q18.096 18.412 17.016 20.122Q15.936 21.832 15.936 24.856ZM23.244 24.856Q23.244 27.052 22.704 28.222Q22.164 29.392 20.616 29.392Q19.05 29.392 18.51 28.222Q17.97 27.052 17.97 24.856Q17.97 22.678 18.51 21.526Q19.05 20.374 20.616 20.374Q22.164 20.374 22.704 21.535Q23.244 22.696 23.244 24.856ZM26.448 20.518L26.448 18.592L30.516 18.592L30.516 31.3L28.356 31.3L28.356 20.518L26.448 20.518Z">
</path>
</g>
<defs>
<mask id="mask-N3P7rkx-Id" style="mask-type:alpha" maskUnits="userSpaceOnUse">
<rect  x="0" y="0" width="50" height="50" rx="8"    fill="#5C5E84" >
</rect>
</mask>
</defs>
</svg>
