<svg xmlns="http://www.w3.org/2000/svg" xmlns:xlink="http://www.w3.org/1999/xlink" width="50" height="50" viewBox="0 0 50 50" fill="none">
<rect  x="0" y="0" width="50" height="50" rx="8"    fill="#2405F2" >
</rect>
<g mask="url(#mask-5ebw3jQd8Z)">
<rect  x="-26" y="27" width="50" height="50" rx="8"    fill="#FCD980" >
</rect>
</g>
<g mask="url(#mask-5ebw3jQd8Z)">
<rect  x="8" y="-9" width="50" height="50" rx="8"    fill="#5239FA" >
</rect>
</g>
<g >
<path     fill="#FFFFFF"  d="M15.936 24.856Q15.936 27.898 17.016 29.617Q18.096 31.336 20.616 31.336Q23.136 31.336 24.216 29.608Q25.296 27.88 25.296 24.856Q25.296 21.85 24.216 20.131Q23.136 18.412 20.616 18.412Q18.096 18.412 17.016 20.122Q15.936 21.832 15.936 24.856ZM23.244 24.856Q23.244 27.052 22.704 28.222Q22.164 29.392 20.616 29.392Q19.05 29.392 18.51 28.222Q17.97 27.052 17.97 24.856Q17.97 22.678 18.51 21.526Q19.05 20.374 20.616 20.374Q22.164 20.374 22.704 21.535Q23.244 22.696 23.244 24.856ZM31.614 18.196Q32.874 18.196 33.774 18.637Q34.674 19.078 35.133 19.852Q35.592 20.626 35.592 21.58Q35.592 22.786 34.917 23.587Q34.242 24.388 33.018 24.55L33.018 24.64Q34.332 25.018 35.079 25.765Q35.826 26.512 35.826 27.826Q35.826 29.428 34.764 30.427Q33.702 31.426 31.722 31.426Q29.688 31.426 28.446 30.391Q27.204 29.356 27.024 27.322L29.058 27.322Q29.166 28.402 29.832 29.041Q30.498 29.68 31.632 29.68Q32.694 29.68 33.261 29.122Q33.828 28.564 33.828 27.682Q33.828 26.62 33.009 26.062Q32.19 25.504 30.642 25.504L30.156 25.504L30.156 23.812L30.642 23.812Q33.576 23.848 33.576 21.814Q33.576 20.932 33.036 20.428Q32.496 19.924 31.56 19.924Q30.624 19.924 29.994 20.491Q29.364 21.058 29.238 22.138L27.222 22.138Q27.348 20.266 28.482 19.231Q29.616 18.196 31.614 18.196Z">
</path>
</g>
<defs>
<mask id="mask-5ebw3jQd8Z" style="mask-type:alpha" maskUnits="userSpaceOnUse">
<rect  x="0" y="0" width="50" height="50" rx="8"    fill="#5C5E84" >
</rect>
</mask>
</defs>
</svg>
