<svg xmlns="http://www.w3.org/2000/svg" xmlns:xlink="http://www.w3.org/1999/xlink" width="50" height="50" viewBox="0 0 50 50" fill="none">
<rect  x="0" y="0" width="50" height="50" rx="8"    fill="#2405F2" >
</rect>
<g mask="url(#mask-j1hgK8LKAu)">
<rect  x="-26" y="27" width="50" height="50" rx="8"    fill="#FCD980" >
</rect>
</g>
<g mask="url(#mask-j1hgK8LKAu)">
<rect  x="8" y="-9" width="50" height="50" rx="8"    fill="#5239FA" >
</rect>
</g>
<g >
<path     fill="#FFFFFF"  d="M15.936 24.856Q15.936 27.898 17.016 29.617Q18.096 31.336 20.616 31.336Q23.136 31.336 24.216 29.608Q25.296 27.88 25.296 24.856Q25.296 21.85 24.216 20.131Q23.136 18.412 20.616 18.412Q18.096 18.412 17.016 20.122Q15.936 21.832 15.936 24.856ZM23.244 24.856Q23.244 27.052 22.704 28.222Q22.164 29.392 20.616 29.392Q19.05 29.392 18.51 28.222Q17.97 27.052 17.97 24.856Q17.97 22.678 18.51 21.526Q19.05 20.374 20.616 20.374Q22.164 20.374 22.704 21.535Q23.244 22.696 23.244 24.856ZM26.934 29.698Q29.85 27.7 31.605 25.783Q33.36 23.866 33.36 22.228Q33.36 21.256 32.883 20.68Q32.406 20.104 31.344 20.104Q30.246 20.104 29.688 20.815Q29.13 21.526 29.058 22.84L27.06 22.84Q27.186 20.662 28.401 19.51Q29.616 18.358 31.506 18.358Q33.36 18.358 34.413 19.339Q35.466 20.32 35.466 22.048Q35.466 23.434 34.611 24.856Q33.756 26.278 32.442 27.475Q31.128 28.672 29.724 29.536L35.754 29.536L35.754 31.21L26.934 31.21L26.934 29.698Z">
</path>
</g>
<defs>
<mask id="mask-j1hgK8LKAu" style="mask-type:alpha" maskUnits="userSpaceOnUse">
<rect  x="0" y="0" width="50" height="50" rx="8"    fill="#5C5E84" >
</rect>
</mask>
</defs>
</svg>
